STARTFONT 2.1
COMMENT 
COMMENT This file has been produced by ttf2bdf written by Subhabrata Biswas
COMMENT 
COMMENT For comments, questions, bug reports, send a mail to
COMMENT                                           subhabrata.biswas@usa.net
COMMENT 
FONT -*-Cascadia Code SemiBold-Medium-R-Normal--16-120-96-96-c-9--fontspecific
SIZE 12 96 96
FONTBOUNDINGBOX 43 21 -8 -8
STARTPROPERTIES 15
FOUNDRY "Misc"
FAMILY_NAME "Cascadia Code SemiBold"
WEIGHT_NAME "Medium"
SLANT "R"
SETWIDTH_NAME "Normal"
PIXEL_SIZE 11
POINT_SIZE 120
RESOLUTION_X 96
RESOLUTION_Y 96
SPACING "C"
CHARSET_ENCODING "fontspecific"
FONT_ASCENT 17
FONT_DESCENT 4
DEFAULT_CHAR 12
COPYRIGHT "You may wish to put your copyright here"
ENDPROPERTIES
CHARS 245
STARTCHAR C0011
ENCODING 11
SWIDTH 562 0
DWIDTH 9 0
BBX 7 11 1 0
BITMAP
FE
FE
C2
C2
C2
C2
C2
C2
C2
FE
FE
ENDCHAR
STARTCHAR C0012
ENCODING 12
SWIDTH 562 0
DWIDTH 9 0
BBX 7 11 1 0
BITMAP
FE
FE
C2
C2
C2
C2
C2
C2
C2
FE
FE
ENDCHAR
STARTCHAR C0013
ENCODING 13
SWIDTH 562 0
DWIDTH 9 0
BBX 1 1 0 -1
BITMAP
00
ENDCHAR
STARTCHAR C0014
ENCODING 14
SWIDTH 562 0
DWIDTH 9 0
BBX 7 11 1 0
BITMAP
FE
FE
C2
C2
C2
C2
C2
C2
C2
FE
FE
ENDCHAR
STARTCHAR C0015
ENCODING 15
SWIDTH 562 0
DWIDTH 9 0
BBX 7 11 1 0
BITMAP
FE
FE
C2
C2
C2
C2
C2
C2
C2
FE
FE
ENDCHAR
STARTCHAR C0016
ENCODING 16
SWIDTH 562 0
DWIDTH 9 0
BBX 7 11 1 0
BITMAP
FE
FE
C2
C2
C2
C2
C2
C2
C2
FE
FE
ENDCHAR
STARTCHAR C0017
ENCODING 17
SWIDTH 562 0
DWIDTH 9 0
BBX 7 11 1 0
BITMAP
FE
FE
C2
C2
C2
C2
C2
C2
C2
FE
FE
ENDCHAR
STARTCHAR C0018
ENCODING 18
SWIDTH 562 0
DWIDTH 9 0
BBX 7 11 1 0
BITMAP
FE
FE
C2
C2
C2
C2
C2
C2
C2
FE
FE
ENDCHAR
STARTCHAR C0019
ENCODING 19
SWIDTH 562 0
DWIDTH 9 0
BBX 7 11 1 0
BITMAP
FE
FE
C2
C2
C2
C2
C2
C2
C2
FE
FE
ENDCHAR
STARTCHAR C0020
ENCODING 20
SWIDTH 562 0
DWIDTH 9 0
BBX 7 11 1 0
BITMAP
FE
FE
C2
C2
C2
C2
C2
C2
C2
FE
FE
ENDCHAR
STARTCHAR C0021
ENCODING 21
SWIDTH 562 0
DWIDTH 9 0
BBX 7 11 1 0
BITMAP
FE
FE
C2
C2
C2
C2
C2
C2
C2
FE
FE
ENDCHAR
STARTCHAR C0022
ENCODING 22
SWIDTH 562 0
DWIDTH 9 0
BBX 7 11 1 0
BITMAP
FE
FE
C2
C2
C2
C2
C2
C2
C2
FE
FE
ENDCHAR
STARTCHAR C0023
ENCODING 23
SWIDTH 562 0
DWIDTH 9 0
BBX 7 11 1 0
BITMAP
FE
FE
C2
C2
C2
C2
C2
C2
C2
FE
FE
ENDCHAR
STARTCHAR C0024
ENCODING 24
SWIDTH 562 0
DWIDTH 9 0
BBX 7 11 1 0
BITMAP
FE
FE
C2
C2
C2
C2
C2
C2
C2
FE
FE
ENDCHAR
STARTCHAR C0025
ENCODING 25
SWIDTH 562 0
DWIDTH 9 0
BBX 7 11 1 0
BITMAP
FE
FE
C2
C2
C2
C2
C2
C2
C2
FE
FE
ENDCHAR
STARTCHAR C0026
ENCODING 26
SWIDTH 562 0
DWIDTH 9 0
BBX 7 11 1 0
BITMAP
FE
FE
C2
C2
C2
C2
C2
C2
C2
FE
FE
ENDCHAR
STARTCHAR C0027
ENCODING 27
SWIDTH 562 0
DWIDTH 9 0
BBX 7 11 1 0
BITMAP
FE
FE
C2
C2
C2
C2
C2
C2
C2
FE
FE
ENDCHAR
STARTCHAR C0028
ENCODING 28
SWIDTH 562 0
DWIDTH 9 0
BBX 7 11 1 0
BITMAP
FE
FE
C2
C2
C2
C2
C2
C2
C2
FE
FE
ENDCHAR
STARTCHAR C0029
ENCODING 29
SWIDTH 562 0
DWIDTH 9 0
BBX 7 11 1 0
BITMAP
FE
FE
C2
C2
C2
C2
C2
C2
C2
FE
FE
ENDCHAR
STARTCHAR C0030
ENCODING 30
SWIDTH 562 0
DWIDTH 9 0
BBX 7 11 1 0
BITMAP
FE
FE
C2
C2
C2
C2
C2
C2
C2
FE
FE
ENDCHAR
STARTCHAR C0031
ENCODING 31
SWIDTH 562 0
DWIDTH 9 0
BBX 7 11 1 0
BITMAP
FE
FE
C2
C2
C2
C2
C2
C2
C2
FE
FE
ENDCHAR
STARTCHAR C0032- 
ENCODING 32
SWIDTH 562 0
DWIDTH 9 0
BBX 1 1 0 -1
BITMAP
00
ENDCHAR
STARTCHAR C0033-!
ENCODING 33
SWIDTH 562 0
DWIDTH 9 0
BBX 3 11 3 0
BITMAP
60
60
60
60
60
60
00
00
60
E0
60
ENDCHAR
STARTCHAR C0034-"
ENCODING 34
SWIDTH 562 0
DWIDTH 9 0
BBX 6 5 2 6
BITMAP
CC
CC
CC
CC
CC
ENDCHAR
STARTCHAR C0035-#
ENCODING 35
SWIDTH 562 0
DWIDTH 9 0
BBX 8 11 1 0
BITMAP
26
26
FF
FF
64
64
6C
FF
FF
6C
4C
ENDCHAR
STARTCHAR C0036-$
ENCODING 36
SWIDTH 562 0
DWIDTH 9 0
BBX 7 15 1 -2
BITMAP
18
18
3C
7E
D8
D8
78
3C
1E
1E
9E
FE
FC
18
18
ENDCHAR
STARTCHAR C0037-%
ENCODING 37
SWIDTH 562 0
DWIDTH 9 0
BBX 9 11 0 0
BITMAP
7000
F800
C800
FB80
7600
1C00
3700
6F80
0C80
0F80
0700
ENDCHAR
STARTCHAR C0038-&
ENCODING 38
SWIDTH 562 0
DWIDTH 9 0
BBX 10 11 0 0
BITMAP
1E00
3F00
3300
3000
3000
3980
7D80
CF00
E700
7F00
3D80
ENDCHAR
STARTCHAR C0039-'
ENCODING 39
SWIDTH 562 0
DWIDTH 9 0
BBX 2 5 4 6
BITMAP
C0
C0
C0
C0
C0
ENDCHAR
STARTCHAR C0040-(
ENCODING 40
SWIDTH 562 0
DWIDTH 9 0
BBX 6 14 2 -1
BITMAP
0C
3C
70
60
C0
C0
C0
C0
C0
C0
E0
60
7C
1C
ENDCHAR
STARTCHAR C0041-)
ENCODING 41
SWIDTH 562 0
DWIDTH 9 0
BBX 6 14 1 -1
BITMAP
40
70
38
1C
0C
0C
0C
0C
0C
0C
0C
1C
78
70
ENDCHAR
STARTCHAR C0042-*
ENCODING 42
SWIDTH 562 0
DWIDTH 9 0
BBX 8 7 1 2
BITMAP
18
9A
FE
7E
3C
6E
04
ENDCHAR
STARTCHAR C0043-+
ENCODING 43
SWIDTH 562 0
DWIDTH 9 0
BBX 8 8 1 1
BITMAP
18
18
18
FF
FF
18
18
18
ENDCHAR
STARTCHAR C0044-,
ENCODING 44
SWIDTH 562 0
DWIDTH 9 0
BBX 3 5 3 -3
BITMAP
60
E0
C0
C0
C0
ENDCHAR
STARTCHAR C0045--
ENCODING 45
SWIDTH 562 0
DWIDTH 9 0
BBX 8 2 1 4
BITMAP
FF
FF
ENDCHAR
STARTCHAR C0046-.
ENCODING 46
SWIDTH 562 0
DWIDTH 9 0
BBX 3 3 3 0
BITMAP
60
E0
60
ENDCHAR
STARTCHAR C0047-/
ENCODING 47
SWIDTH 562 0
DWIDTH 9 0
BBX 8 14 1 -1
BITMAP
03
06
06
04
0C
0C
18
18
30
30
60
60
60
C0
ENDCHAR
STARTCHAR C0048-0
ENCODING 48
SWIDTH 562 0
DWIDTH 9 0
BBX 8 11 1 0
BITMAP
3C
7E
E6
C6
DB
DB
D3
C6
C6
7E
3C
ENDCHAR
STARTCHAR C0049-1
ENCODING 49
SWIDTH 562 0
DWIDTH 9 0
BBX 7 11 1 0
BITMAP
38
F8
D8
18
18
18
18
18
18
FE
FE
ENDCHAR
STARTCHAR C0050-2
ENCODING 50
SWIDTH 562 0
DWIDTH 9 0
BBX 7 11 1 0
BITMAP
7C
FE
C6
06
06
0C
0C
18
70
FE
FE
ENDCHAR
STARTCHAR C0051-3
ENCODING 51
SWIDTH 562 0
DWIDTH 9 0
BBX 7 11 1 0
BITMAP
7C
FE
06
06
0C
38
0E
06
06
FE
FC
ENDCHAR
STARTCHAR C0052-4
ENCODING 52
SWIDTH 562 0
DWIDTH 9 0
BBX 9 11 0 0
BITMAP
0300
3300
3300
6300
6300
6300
6300
7F80
7F80
0300
0300
ENDCHAR
STARTCHAR C0053-5
ENCODING 53
SWIDTH 562 0
DWIDTH 9 0
BBX 8 11 1 0
BITMAP
7E
7E
60
60
7E
7E
07
03
C6
FE
7C
ENDCHAR
STARTCHAR C0054-6
ENCODING 54
SWIDTH 562 0
DWIDTH 9 0
BBX 8 11 1 0
BITMAP
0E
3E
70
E0
DC
FE
C7
C3
C7
FE
3C
ENDCHAR
STARTCHAR C0055-7
ENCODING 55
SWIDTH 562 0
DWIDTH 9 0
BBX 8 11 1 0
BITMAP
FF
FF
C6
C6
06
0C
0C
0C
18
18
18
ENDCHAR
STARTCHAR C0056-8
ENCODING 56
SWIDTH 562 0
DWIDTH 9 0
BBX 8 11 1 0
BITMAP
7C
FE
C6
C6
7C
7C
C6
C3
C7
FE
7C
ENDCHAR
STARTCHAR C0057-9
ENCODING 57
SWIDTH 562 0
DWIDTH 9 0
BBX 8 11 1 0
BITMAP
7C
FE
C6
C3
C7
FA
7E
06
1E
7C
70
ENDCHAR
STARTCHAR C0058-:
ENCODING 58
SWIDTH 562 0
DWIDTH 9 0
BBX 3 8 3 0
BITMAP
60
E0
60
00
00
60
E0
60
ENDCHAR
STARTCHAR C0059-;
ENCODING 59
SWIDTH 562 0
DWIDTH 9 0
BBX 3 11 3 -3
BITMAP
60
E0
60
00
00
00
60
60
C0
C0
C0
ENDCHAR
STARTCHAR C0060-<
ENCODING 60
SWIDTH 562 0
DWIDTH 9 0
BBX 7 8 1 2
BITMAP
00
06
3E
F0
C0
F0
3E
06
ENDCHAR
STARTCHAR C0061-=
ENCODING 61
SWIDTH 562 0
DWIDTH 9 0
BBX 8 6 1 2
BITMAP
FF
FF
00
00
FF
FF
ENDCHAR
STARTCHAR C0062->
ENCODING 62
SWIDTH 562 0
DWIDTH 9 0
BBX 8 8 1 2
BITMAP
00
E0
F8
1F
03
1F
F8
E0
ENDCHAR
STARTCHAR C0063-?
ENCODING 63
SWIDTH 562 0
DWIDTH 9 0
BBX 7 11 1 0
BITMAP
7C
FE
46
06
1C
18
30
00
30
38
30
ENDCHAR
STARTCHAR C0064-@
ENCODING 64
SWIDTH 562 0
DWIDTH 9 0
BBX 7 13 1 -2
BITMAP
3C
7E
C6
DA
DE
B2
B2
B2
DE
DA
E0
7C
3C
ENDCHAR
STARTCHAR C0065-A
ENCODING 65
SWIDTH 562 0
DWIDTH 9 0
BBX 9 11 0 0
BITMAP
1C00
1C00
1E00
3600
3600
3300
2300
7F00
7F00
6180
C180
ENDCHAR
STARTCHAR C0066-B
ENCODING 66
SWIDTH 562 0
DWIDTH 9 0
BBX 8 11 1 0
BITMAP
FC
FE
C6
C6
FC
FE
C3
C3
C3
FF
FE
ENDCHAR
STARTCHAR C0067-C
ENCODING 67
SWIDTH 562 0
DWIDTH 9 0
BBX 8 11 1 0
BITMAP
3E
7F
E0
C0
C0
C0
C0
C0
E0
7F
3E
ENDCHAR
STARTCHAR C0068-D
ENCODING 68
SWIDTH 562 0
DWIDTH 9 0
BBX 8 11 1 0
BITMAP
F8
FE
C6
C3
C3
C3
C3
C3
C6
FE
F8
ENDCHAR
STARTCHAR C0069-E
ENCODING 69
SWIDTH 562 0
DWIDTH 9 0
BBX 8 11 1 0
BITMAP
FF
FF
C0
C0
FC
FC
C0
C0
C0
FF
FF
ENDCHAR
STARTCHAR C0070-F
ENCODING 70
SWIDTH 562 0
DWIDTH 9 0
BBX 8 11 1 0
BITMAP
FF
FF
C0
C0
C0
FC
FC
C0
C0
C0
C0
ENDCHAR
STARTCHAR C0071-G
ENCODING 71
SWIDTH 562 0
DWIDTH 9 0
BBX 9 11 0 0
BITMAP
1F00
3F80
7100
6000
C000
C780
C780
6180
7180
3F80
1F00
ENDCHAR
STARTCHAR C0072-H
ENCODING 72
SWIDTH 562 0
DWIDTH 9 0
BBX 7 11 1 0
BITMAP
C6
C6
C6
C6
FE
FE
C6
C6
C6
C6
C6
ENDCHAR
STARTCHAR C0073-I
ENCODING 73
SWIDTH 562 0
DWIDTH 9 0
BBX 7 11 1 0
BITMAP
FE
FE
18
18
18
18
18
18
18
FE
FE
ENDCHAR
STARTCHAR C0074-J
ENCODING 74
SWIDTH 562 0
DWIDTH 9 0
BBX 7 11 1 0
BITMAP
1E
1E
06
06
06
06
06
C6
C6
FE
7C
ENDCHAR
STARTCHAR C0075-K
ENCODING 75
SWIDTH 562 0
DWIDTH 9 0
BBX 8 11 1 0
BITMAP
C3
C2
C6
C6
DC
F8
FC
CC
C6
C6
C3
ENDCHAR
STARTCHAR C0076-L
ENCODING 76
SWIDTH 562 0
DWIDTH 9 0
BBX 8 11 1 0
BITMAP
C0
C0
C0
C0
C0
C0
C0
C0
C0
FF
FF
ENDCHAR
STARTCHAR C0077-M
ENCODING 77
SWIDTH 562 0
DWIDTH 9 0
BBX 7 11 1 0
BITMAP
E6
EE
EA
EA
FA
DA
DA
C2
C2
C2
C2
ENDCHAR
STARTCHAR C0078-N
ENCODING 78
SWIDTH 562 0
DWIDTH 9 0
BBX 7 11 1 0
BITMAP
E6
E6
E6
F6
D6
D6
DE
CE
CE
CE
CE
ENDCHAR
STARTCHAR C0079-O
ENCODING 79
SWIDTH 562 0
DWIDTH 9 0
BBX 8 11 1 0
BITMAP
3C
FE
C6
C3
C3
83
C3
C3
C6
FE
3C
ENDCHAR
STARTCHAR C0080-P
ENCODING 80
SWIDTH 562 0
DWIDTH 9 0
BBX 8 11 1 0
BITMAP
FC
FE
C7
C3
C3
C7
FE
FC
C0
C0
C0
ENDCHAR
STARTCHAR C0081-Q
ENCODING 81
SWIDTH 562 0
DWIDTH 9 0
BBX 8 14 1 -3
BITMAP
3C
FE
C6
C3
C3
83
C3
C3
C6
FE
3C
18
1E
0E
ENDCHAR
STARTCHAR C0082-R
ENCODING 82
SWIDTH 562 0
DWIDTH 9 0
BBX 8 11 1 0
BITMAP
FC
FE
C7
C3
C6
FE
FC
CC
C6
C6
C3
ENDCHAR
STARTCHAR C0083-S
ENCODING 83
SWIDTH 562 0
DWIDTH 9 0
BBX 7 11 1 0
BITMAP
3C
7E
C0
C0
70
3C
0E
06
86
FE
FC
ENDCHAR
STARTCHAR C0084-T
ENCODING 84
SWIDTH 562 0
DWIDTH 9 0
BBX 8 11 1 0
BITMAP
FF
FF
18
18
18
18
18
18
18
18
18
ENDCHAR
STARTCHAR C0085-U
ENCODING 85
SWIDTH 562 0
DWIDTH 9 0
BBX 7 11 1 0
BITMAP
C6
C6
C6
C6
C6
C6
C6
C6
C6
FE
7C
ENDCHAR
STARTCHAR C0086-V
ENCODING 86
SWIDTH 562 0
DWIDTH 9 0
BBX 9 11 0 0
BITMAP
C180
6180
6100
6300
6300
3300
3600
3600
1600
1E00
1C00
ENDCHAR
STARTCHAR C0087-W
ENCODING 87
SWIDTH 562 0
DWIDTH 9 0
BBX 9 11 0 0
BITMAP
C180
C180
C180
CD80
4D80
5D80
7580
7500
7500
7700
7700
ENDCHAR
STARTCHAR C0088-X
ENCODING 88
SWIDTH 562 0
DWIDTH 9 0
BBX 9 11 0 0
BITMAP
6180
6300
3600
1600
1C00
0C00
1C00
1E00
3600
6300
6380
ENDCHAR
STARTCHAR C0089-Y
ENCODING 89
SWIDTH 562 0
DWIDTH 9 0
BBX 9 11 0 0
BITMAP
C180
6380
6300
3300
3600
1E00
1C00
0C00
0C00
0C00
0C00
ENDCHAR
STARTCHAR C0090-Z
ENCODING 90
SWIDTH 562 0
DWIDTH 9 0
BBX 7 11 1 0
BITMAP
FE
FE
06
0C
1C
18
30
60
E0
FE
FE
ENDCHAR
STARTCHAR C0091-[
ENCODING 91
SWIDTH 562 0
DWIDTH 9 0
BBX 5 14 3 -1
BITMAP
F8
F8
C0
C0
C0
C0
C0
C0
C0
C0
C0
C0
F8
F8
ENDCHAR
STARTCHAR C0092-\
ENCODING 92
SWIDTH 562 0
DWIDTH 9 0
BBX 8 14 1 -1
BITMAP
C0
C0
C0
60
60
30
30
18
18
08
0C
0C
06
06
ENDCHAR
STARTCHAR C0093-]
ENCODING 93
SWIDTH 562 0
DWIDTH 9 0
BBX 6 14 1 -1
BITMAP
FC
FC
0C
0C
0C
0C
0C
0C
0C
0C
0C
0C
FC
FC
ENDCHAR
STARTCHAR C0094-^
ENCODING 94
SWIDTH 562 0
DWIDTH 9 0
BBX 7 5 1 6
BITMAP
38
38
2C
6C
66
ENDCHAR
STARTCHAR C0095-_
ENCODING 95
SWIDTH 562 0
DWIDTH 9 0
BBX 8 2 1 -2
BITMAP
FF
FF
ENDCHAR
STARTCHAR C0096-`
ENCODING 96
SWIDTH 562 0
DWIDTH 9 0
BBX 5 4 2 7
BITMAP
60
60
30
30
ENDCHAR
STARTCHAR C0097-a
ENCODING 97
SWIDTH 562 0
DWIDTH 9 0
BBX 8 8 1 0
BITMAP
78
7C
06
7E
FE
C6
FF
77
ENDCHAR
STARTCHAR C0098-b
ENCODING 98
SWIDTH 562 0
DWIDTH 9 0
BBX 8 12 1 0
BITMAP
C0
C0
C0
C0
DC
FE
C7
C3
C3
C6
FE
F8
ENDCHAR
STARTCHAR C0099-c
ENCODING 99
SWIDTH 562 0
DWIDTH 9 0
BBX 8 8 1 0
BITMAP
3E
7F
E2
C0
C0
E0
7E
3E
ENDCHAR
STARTCHAR C0100-d
ENCODING 100
SWIDTH 562 0
DWIDTH 9 0
BBX 7 12 1 0
BITMAP
06
06
06
06
7E
FE
C6
C6
C6
C6
FE
7E
ENDCHAR
STARTCHAR C0101-e
ENCODING 101
SWIDTH 562 0
DWIDTH 9 0
BBX 7 8 1 0
BITMAP
3C
7E
C6
FE
C0
E0
7E
3E
ENDCHAR
STARTCHAR C0102-f
ENCODING 102
SWIDTH 562 0
DWIDTH 9 0
BBX 9 12 0 0
BITMAP
0780
0F80
1C00
1800
1800
FF00
FF00
1800
1800
1800
1800
1800
ENDCHAR
STARTCHAR C0103-g
ENCODING 103
SWIDTH 562 0
DWIDTH 9 0
BBX 7 12 1 -4
BITMAP
7E
FE
C6
C6
C6
C6
FE
7E
06
0E
FC
F8
ENDCHAR
STARTCHAR C0104-h
ENCODING 104
SWIDTH 562 0
DWIDTH 9 0
BBX 7 12 1 0
BITMAP
C0
C0
C0
C0
DC
FE
E6
C6
C6
C6
C6
C6
ENDCHAR
STARTCHAR C0105-i
ENCODING 105
SWIDTH 562 0
DWIDTH 9 0
BBX 8 12 1 0
BITMAP
18
18
18
00
78
78
18
18
18
18
FF
FF
ENDCHAR
STARTCHAR C0106-j
ENCODING 106
SWIDTH 562 0
DWIDTH 9 0
BBX 6 16 1 -4
BITMAP
0C
0C
0C
00
7C
7C
0C
0C
0C
0C
0C
0C
0C
1C
F8
F0
ENDCHAR
STARTCHAR C0107-k
ENCODING 107
SWIDTH 562 0
DWIDTH 9 0
BBX 8 12 1 0
BITMAP
C0
C0
C0
C0
C6
C6
CE
FC
FC
CE
C6
C7
ENDCHAR
STARTCHAR C0108-l
ENCODING 108
SWIDTH 562 0
DWIDTH 9 0
BBX 7 12 1 0
BITMAP
F0
F0
30
30
30
30
30
30
30
30
3E
1E
ENDCHAR
STARTCHAR C0109-m
ENCODING 109
SWIDTH 562 0
DWIDTH 9 0
BBX 8 8 1 0
BITMAP
F6
FF
D3
D3
D3
D3
D3
D3
ENDCHAR
STARTCHAR C0110-n
ENCODING 110
SWIDTH 562 0
DWIDTH 9 0
BBX 7 8 1 0
BITMAP
DC
FE
E6
C6
C6
C6
C6
C6
ENDCHAR
STARTCHAR C0111-o
ENCODING 111
SWIDTH 562 0
DWIDTH 9 0
BBX 7 8 1 0
BITMAP
3C
7E
C6
C6
C6
C6
7E
3C
ENDCHAR
STARTCHAR C0112-p
ENCODING 112
SWIDTH 562 0
DWIDTH 9 0
BBX 8 12 1 -4
BITMAP
DC
FE
E7
C3
C3
E7
FE
DC
C0
C0
C0
C0
ENDCHAR
STARTCHAR C0113-q
ENCODING 113
SWIDTH 562 0
DWIDTH 9 0
BBX 7 12 1 -4
BITMAP
7E
FE
C6
C6
C6
C6
FE
7E
06
06
06
06
ENDCHAR
STARTCHAR C0114-r
ENCODING 114
SWIDTH 562 0
DWIDTH 9 0
BBX 8 8 1 0
BITMAP
EE
EF
73
60
60
60
F8
F8
ENDCHAR
STARTCHAR C0115-s
ENCODING 115
SWIDTH 562 0
DWIDTH 9 0
BBX 7 8 1 0
BITMAP
3E
FE
C0
78
1E
06
FE
FC
ENDCHAR
STARTCHAR C0116-t
ENCODING 116
SWIDTH 562 0
DWIDTH 9 0
BBX 8 11 0 0
BITMAP
30
30
30
FF
FF
30
30
30
18
1F
0F
ENDCHAR
STARTCHAR C0117-u
ENCODING 117
SWIDTH 562 0
DWIDTH 9 0
BBX 8 8 1 0
BITMAP
C6
C6
C6
C6
C6
C6
FF
77
ENDCHAR
STARTCHAR C0118-v
ENCODING 118
SWIDTH 562 0
DWIDTH 9 0
BBX 8 8 1 0
BITMAP
C3
C6
C6
66
6C
2C
38
38
ENDCHAR
STARTCHAR C0119-w
ENCODING 119
SWIDTH 562 0
DWIDTH 9 0
BBX 9 8 0 0
BITMAP
4980
4D80
7580
7500
7500
7500
7700
7700
ENDCHAR
STARTCHAR C0120-x
ENCODING 120
SWIDTH 562 0
DWIDTH 9 0
BBX 8 8 1 0
BITMAP
C6
6E
3C
38
38
3C
6E
C6
ENDCHAR
STARTCHAR C0121-y
ENCODING 121
SWIDTH 562 0
DWIDTH 9 0
BBX 9 12 0 -4
BITMAP
6180
6300
6300
3300
3600
3E00
1E00
1C00
0C00
1C00
F800
F000
ENDCHAR
STARTCHAR C0122-z
ENCODING 122
SWIDTH 562 0
DWIDTH 9 0
BBX 7 8 1 0
BITMAP
FE
FE
0C
18
30
60
FE
FE
ENDCHAR
STARTCHAR C0123-{
ENCODING 123
SWIDTH 562 0
DWIDTH 9 0
BBX 6 14 2 -1
BITMAP
1C
3C
30
30
30
30
F0
F0
30
30
30
30
3C
3C
ENDCHAR
STARTCHAR C0124-|
ENCODING 124
SWIDTH 562 0
DWIDTH 9 0
BBX 2 16 4 -2
BITMAP
C0
C0
C0
C0
C0
C0
C0
C0
C0
C0
C0
C0
C0
C0
C0
C0
ENDCHAR
STARTCHAR C0125-}
ENCODING 125
SWIDTH 562 0
DWIDTH 9 0
BBX 6 14 2 -1
BITMAP
C0
F0
70
20
60
60
3C
3C
60
60
20
30
F0
E0
ENDCHAR
STARTCHAR C0126-~
ENCODING 126
SWIDTH 562 0
DWIDTH 9 0
BBX 8 4 1 3
BITMAP
63
FB
DE
C6
ENDCHAR
STARTCHAR C0127
ENCODING 127
SWIDTH 562 0
DWIDTH 9 0
BBX 7 11 1 0
BITMAP
FE
FE
C2
C2
C2
C2
C2
C2
C2
FE
FE
ENDCHAR
STARTCHAR C0128
ENCODING 128
SWIDTH 562 0
DWIDTH 9 0
BBX 8 11 1 0
BITMAP
1E
3F
62
60
FC
C0
FC
60
70
7F
1F
ENDCHAR
STARTCHAR C0129
ENCODING 129
SWIDTH 562 0
DWIDTH 9 0
BBX 7 11 1 0
BITMAP
FE
FE
C2
C2
C2
C2
C2
C2
C2
FE
FE
ENDCHAR
STARTCHAR C0130
ENCODING 130
SWIDTH 562 0
DWIDTH 9 0
BBX 3 6 3 -4
BITMAP
E0
E0
60
60
E0
40
ENDCHAR
STARTCHAR C0131
ENCODING 131
SWIDTH 562 0
DWIDTH 9 0
BBX 9 16 0 -4
BITMAP
0780
0F80
1C00
1800
1800
FF00
FF00
1800
1800
1800
1800
1800
1800
3800
7000
6000
ENDCHAR
STARTCHAR C0132
ENCODING 132
SWIDTH 562 0
DWIDTH 9 0
BBX 7 6 1 -4
BITMAP
EE
EE
66
66
EE
44
ENDCHAR
STARTCHAR C0133
ENCODING 133
SWIDTH 562 0
DWIDTH 9 0
BBX 9 3 0 0
BITMAP
6D80
FF80
6D80
ENDCHAR
STARTCHAR C0134
ENCODING 134
SWIDTH 562 0
DWIDTH 9 0
BBX 6 9 2 2
BITMAP
30
30
FC
FC
30
30
30
30
30
ENDCHAR
STARTCHAR C0135
ENCODING 135
SWIDTH 562 0
DWIDTH 9 0
BBX 6 9 2 2
BITMAP
30
FC
FC
30
30
FC
FC
30
30
ENDCHAR
STARTCHAR C0136
ENCODING 136
SWIDTH 562 0
DWIDTH 9 0
BBX 6 3 2 10
BITMAP
70
78
D8
ENDCHAR
STARTCHAR C0137
ENCODING 137
SWIDTH 562 0
DWIDTH 9 0
BBX 9 11 0 0
BITMAP
7000
F800
C900
FB00
7600
1F80
3280
FA80
3D80
3400
1C00
ENDCHAR
STARTCHAR C0138
ENCODING 138
SWIDTH 562 0
DWIDTH 9 0
BBX 7 14 1 0
BITMAP
6C
38
00
3C
7E
C0
C0
70
3C
0E
06
86
FE
FC
ENDCHAR
STARTCHAR C0139
ENCODING 139
SWIDTH 562 0
DWIDTH 9 0
BBX 5 8 2 0
BITMAP
10
30
60
C0
C0
60
30
10
ENDCHAR
STARTCHAR C0140
ENCODING 140
SWIDTH 562 0
DWIDTH 9 0
BBX 8 11 1 0
BITMAP
7F
FF
D8
D8
DE
9E
D8
D8
D8
FF
7F
ENDCHAR
STARTCHAR C0141
ENCODING 141
SWIDTH 562 0
DWIDTH 9 0
BBX 7 11 1 0
BITMAP
FE
FE
C2
C2
C2
C2
C2
C2
C2
FE
FE
ENDCHAR
STARTCHAR C0142
ENCODING 142
SWIDTH 562 0
DWIDTH 9 0
BBX 7 14 1 0
BITMAP
6C
38
00
FE
FE
06
0C
1C
18
30
60
E0
FE
FE
ENDCHAR
STARTCHAR C0143
ENCODING 143
SWIDTH 562 0
DWIDTH 9 0
BBX 7 11 1 0
BITMAP
FE
FE
C2
C2
C2
C2
C2
C2
C2
FE
FE
ENDCHAR
STARTCHAR C0144
ENCODING 144
SWIDTH 562 0
DWIDTH 9 0
BBX 7 11 1 0
BITMAP
FE
FE
C2
C2
C2
C2
C2
C2
C2
FE
FE
ENDCHAR
STARTCHAR C0145
ENCODING 145
SWIDTH 562 0
DWIDTH 9 0
BBX 3 6 3 5
BITMAP
40
E0
C0
C0
E0
60
ENDCHAR
STARTCHAR C0146
ENCODING 146
SWIDTH 562 0
DWIDTH 9 0
BBX 3 6 3 5
BITMAP
E0
E0
60
60
E0
40
ENDCHAR
STARTCHAR C0147
ENCODING 147
SWIDTH 562 0
DWIDTH 9 0
BBX 7 6 1 5
BITMAP
44
EE
CC
CC
EE
66
ENDCHAR
STARTCHAR C0148
ENCODING 148
SWIDTH 562 0
DWIDTH 9 0
BBX 7 6 1 5
BITMAP
EE
EE
66
66
EE
44
ENDCHAR
STARTCHAR C0149
ENCODING 149
SWIDTH 562 0
DWIDTH 9 0
BBX 5 5 2 3
BITMAP
70
F8
F8
F8
70
ENDCHAR
STARTCHAR C0150
ENCODING 150
SWIDTH 562 0
DWIDTH 9 0
BBX 8 2 1 4
BITMAP
FF
FF
ENDCHAR
STARTCHAR C0151
ENCODING 151
SWIDTH 562 0
DWIDTH 9 0
BBX 9 2 0 4
BITMAP
FF80
FF80
ENDCHAR
STARTCHAR C0152
ENCODING 152
SWIDTH 562 0
DWIDTH 9 0
BBX 6 3 2 10
BITMAP
EC
FC
98
ENDCHAR
STARTCHAR C0153
ENCODING 153
SWIDTH 562 0
DWIDTH 9 0
BBX 9 5 0 6
BITMAP
FD80
6B80
6A80
6880
6880
ENDCHAR
STARTCHAR C0154
ENCODING 154
SWIDTH 562 0
DWIDTH 9 0
BBX 7 12 1 0
BITMAP
6C
3C
38
00
3E
FE
C0
78
1E
06
FE
FC
ENDCHAR
STARTCHAR C0155
ENCODING 155
SWIDTH 562 0
DWIDTH 9 0
BBX 4 8 3 0
BITMAP
80
C0
60
30
30
60
C0
80
ENDCHAR
STARTCHAR C0156
ENCODING 156
SWIDTH 562 0
DWIDTH 9 0
BBX 9 8 0 0
BITMAP
7300
FF80
CD80
CD80
CF80
CC00
FF80
7380
ENDCHAR
STARTCHAR C0157
ENCODING 157
SWIDTH 562 0
DWIDTH 9 0
BBX 7 11 1 0
BITMAP
FE
FE
C2
C2
C2
C2
C2
C2
C2
FE
FE
ENDCHAR
STARTCHAR C0158
ENCODING 158
SWIDTH 562 0
DWIDTH 9 0
BBX 7 12 1 0
BITMAP
6C
3C
38
00
FE
FE
0C
18
30
60
FE
FE
ENDCHAR
STARTCHAR C0159
ENCODING 159
SWIDTH 562 0
DWIDTH 9 0
BBX 9 14 0 0
BITMAP
3700
3700
0000
C180
6380
6300
3300
3600
1E00
1C00
0C00
0C00
0C00
0C00
ENDCHAR
STARTCHAR C0160
ENCODING 160
SWIDTH 562 0
DWIDTH 9 0
BBX 1 1 0 -1
BITMAP
00
ENDCHAR
STARTCHAR C0161
ENCODING 161
SWIDTH 562 0
DWIDTH 9 0
BBX 3 11 3 -3
BITMAP
60
E0
60
00
00
60
60
60
60
60
60
ENDCHAR
STARTCHAR C0162
ENCODING 162
SWIDTH 562 0
DWIDTH 9 0
BBX 8 12 1 -2
BITMAP
18
18
3E
7F
FA
D8
D8
F8
7E
3E
18
18
ENDCHAR
STARTCHAR C0163
ENCODING 163
SWIDTH 562 0
DWIDTH 9 0
BBX 8 11 1 0
BITMAP
1E
3F
72
60
60
FC
FC
60
C0
FF
FF
ENDCHAR
STARTCHAR C0164
ENCODING 164
SWIDTH 562 0
DWIDTH 9 0
BBX 9 8 0 2
BITMAP
4100
7F00
3F00
6300
6300
3F00
7F00
4100
ENDCHAR
STARTCHAR C0165
ENCODING 165
SWIDTH 562 0
DWIDTH 9 0
BBX 9 11 0 0
BITMAP
C180
6380
6300
3300
3600
1E00
7F00
0C00
7F00
7F00
0C00
ENDCHAR
STARTCHAR C0166
ENCODING 166
SWIDTH 562 0
DWIDTH 9 0
BBX 2 16 4 -2
BITMAP
C0
C0
C0
C0
C0
C0
C0
00
00
00
C0
C0
C0
C0
C0
C0
ENDCHAR
STARTCHAR C0167
ENCODING 167
SWIDTH 562 0
DWIDTH 9 0
BBX 9 14 0 -2
BITMAP
3F00
7F00
6000
3C00
1F00
7F80
6180
E180
7F80
7C00
0F00
0300
7F00
7E00
ENDCHAR
STARTCHAR C0168
ENCODING 168
SWIDTH 562 0
DWIDTH 9 0
BBX 6 2 2 10
BITMAP
D8
D8
ENDCHAR
STARTCHAR C0169
ENCODING 169
SWIDTH 562 0
DWIDTH 9 0
BBX 9 11 0 0
BITMAP
3E00
6300
4180
DF80
D080
F080
D080
DF80
4180
6300
3E00
ENDCHAR
STARTCHAR C0170
ENCODING 170
SWIDTH 562 0
DWIDTH 9 0
BBX 5 5 2 6
BITMAP
F0
10
F8
98
F8
ENDCHAR
STARTCHAR C0171
ENCODING 171
SWIDTH 562 0
DWIDTH 9 0
BBX 9 8 0 0
BITMAP
1100
3300
6600
CC00
CC00
6600
3300
1100
ENDCHAR
STARTCHAR C0172
ENCODING 172
SWIDTH 562 0
DWIDTH 9 0
BBX 8 4 1 3
BITMAP
FF
FF
03
03
ENDCHAR
STARTCHAR C0173
ENCODING 173
SWIDTH 562 0
DWIDTH 9 0
BBX 8 2 1 4
BITMAP
FF
FF
ENDCHAR
STARTCHAR C0174
ENCODING 174
SWIDTH 562 0
DWIDTH 9 0
BBX 9 11 0 0
BITMAP
3E00
6300
4180
DF80
D280
DE80
DC80
D780
4180
6300
3E00
ENDCHAR
STARTCHAR C0175
ENCODING 175
SWIDTH 562 0
DWIDTH 9 0
BBX 7 2 1 10
BITMAP
FE
FE
ENDCHAR
STARTCHAR C0176
ENCODING 176
SWIDTH 562 0
DWIDTH 9 0
BBX 6 6 2 5
BITMAP
78
C8
8C
8C
C8
78
ENDCHAR
STARTCHAR C0177
ENCODING 177
SWIDTH 562 0
DWIDTH 9 0
BBX 8 8 1 2
BITMAP
18
18
FF
FF
18
18
FF
FF
ENDCHAR
STARTCHAR C0178
ENCODING 178
SWIDTH 562 0
DWIDTH 9 0
BBX 5 5 2 6
BITMAP
70
18
30
60
78
ENDCHAR
STARTCHAR C0179
ENCODING 179
SWIDTH 562 0
DWIDTH 9 0
BBX 4 5 3 6
BITMAP
F0
20
60
F0
E0
ENDCHAR
STARTCHAR C0180
ENCODING 180
SWIDTH 562 0
DWIDTH 9 0
BBX 4 3 3 10
BITMAP
60
60
C0
ENDCHAR
STARTCHAR C0181
ENCODING 181
SWIDTH 562 0
DWIDTH 9 0
BBX 8 12 1 -4
BITMAP
C6
C6
C6
C6
C6
C6
FF
F7
C0
C0
C0
C0
ENDCHAR
STARTCHAR C0182
ENCODING 182
SWIDTH 562 0
DWIDTH 9 0
BBX 9 11 0 0
BITMAP
3F80
7F80
FB00
FB00
FB00
7B00
1B00
1B00
1B00
1B00
1B00
ENDCHAR
STARTCHAR C0183
ENCODING 183
SWIDTH 562 0
DWIDTH 9 0
BBX 3 3 3 4
BITMAP
60
E0
60
ENDCHAR
STARTCHAR C0184
ENCODING 184
SWIDTH 562 0
DWIDTH 9 0
BBX 3 4 3 -4
BITMAP
40
E0
60
E0
ENDCHAR
STARTCHAR C0185
ENCODING 185
SWIDTH 562 0
DWIDTH 9 0
BBX 4 5 3 6
BITMAP
E0
E0
60
60
F0
ENDCHAR
STARTCHAR C0186
ENCODING 186
SWIDTH 562 0
DWIDTH 9 0
BBX 5 5 2 6
BITMAP
70
D8
C8
D8
70
ENDCHAR
STARTCHAR C0187
ENCODING 187
SWIDTH 562 0
DWIDTH 9 0
BBX 8 8 1 0
BITMAP
88
CC
66
33
33
66
CC
88
ENDCHAR
STARTCHAR C0188
ENCODING 188
SWIDTH 562 0
DWIDTH 9 0
BBX 8 11 1 0
BITMAP
E0
E0
60
67
FC
38
7A
CA
8A
1F
02
ENDCHAR
STARTCHAR C0189
ENCODING 189
SWIDTH 562 0
DWIDTH 9 0
BBX 8 11 1 0
BITMAP
E0
E0
60
67
FC
38
7E
C3
87
0E
0F
ENDCHAR
STARTCHAR C0190
ENCODING 190
SWIDTH 562 0
DWIDTH 9 0
BBX 8 11 1 0
BITMAP
F0
30
60
37
EE
18
7A
CA
8A
1F
02
ENDCHAR
STARTCHAR C0191
ENCODING 191
SWIDTH 562 0
DWIDTH 9 0
BBX 8 11 1 -3
BITMAP
18
18
18
00
18
18
30
60
E0
E6
7E
ENDCHAR
STARTCHAR C0192
ENCODING 192
SWIDTH 562 0
DWIDTH 9 0
BBX 9 14 0 0
BITMAP
3000
1800
0000
1C00
1C00
1E00
3600
3600
3300
2300
7F00
7F00
6180
C180
ENDCHAR
STARTCHAR C0193
ENCODING 193
SWIDTH 562 0
DWIDTH 9 0
BBX 9 14 0 0
BITMAP
0700
0E00
0000
1C00
1C00
1E00
3600
3600
3300
2300
7F00
7F00
6180
C180
ENDCHAR
STARTCHAR C0194
ENCODING 194
SWIDTH 562 0
DWIDTH 9 0
BBX 9 14 0 0
BITMAP
1C00
3600
0000
1C00
1C00
1E00
3600
3600
3300
2300
7F00
7F00
6180
C180
ENDCHAR
STARTCHAR C0195
ENCODING 195
SWIDTH 562 0
DWIDTH 9 0
BBX 9 15 0 0
BITMAP
3B00
3F00
2600
0000
1C00
1C00
1E00
3600
3600
3300
2300
7F00
7F00
6180
C180
ENDCHAR
STARTCHAR C0196
ENCODING 196
SWIDTH 562 0
DWIDTH 9 0
BBX 9 14 0 0
BITMAP
3700
3700
0000
1C00
1C00
1E00
3600
3600
3300
2300
7F00
7F00
6180
C180
ENDCHAR
STARTCHAR C0197
ENCODING 197
SWIDTH 562 0
DWIDTH 9 0
BBX 9 15 0 0
BITMAP
1C00
1600
1C00
0000
1C00
1C00
1E00
3600
3600
3300
2300
7F00
7F00
6180
C180
ENDCHAR
STARTCHAR C0198
ENCODING 198
SWIDTH 562 0
DWIDTH 9 0
BBX 9 11 0 0
BITMAP
1F80
1F80
3400
3400
3700
2700
6400
6400
7C00
7F80
C780
ENDCHAR
STARTCHAR C0199
ENCODING 199
SWIDTH 562 0
DWIDTH 9 0
BBX 8 15 1 -4
BITMAP
3E
7F
E0
C0
C0
C0
C0
C0
E0
7F
3E
08
1C
0C
1C
ENDCHAR
STARTCHAR C0200
ENCODING 200
SWIDTH 562 0
DWIDTH 9 0
BBX 8 14 1 0
BITMAP
30
18
00
FF
FF
C0
C0
FC
FC
C0
C0
C0
FF
FF
ENDCHAR
STARTCHAR C0201
ENCODING 201
SWIDTH 562 0
DWIDTH 9 0
BBX 8 14 1 0
BITMAP
0E
1C
00
FF
FF
C0
C0
FC
FC
C0
C0
C0
FF
FF
ENDCHAR
STARTCHAR C0202
ENCODING 202
SWIDTH 562 0
DWIDTH 9 0
BBX 8 14 1 0
BITMAP
38
6C
00
FF
FF
C0
C0
FC
FC
C0
C0
C0
FF
FF
ENDCHAR
STARTCHAR C0203
ENCODING 203
SWIDTH 562 0
DWIDTH 9 0
BBX 8 14 1 0
BITMAP
6E
6E
00
FF
FF
C0
C0
FC
FC
C0
C0
C0
FF
FF
ENDCHAR
STARTCHAR C0204
ENCODING 204
SWIDTH 562 0
DWIDTH 9 0
BBX 7 14 1 0
BITMAP
60
30
00
FE
FE
18
18
18
18
18
18
18
FE
FE
ENDCHAR
STARTCHAR C0205
ENCODING 205
SWIDTH 562 0
DWIDTH 9 0
BBX 7 14 1 0
BITMAP
0E
1C
00
FE
FE
18
18
18
18
18
18
18
FE
FE
ENDCHAR
STARTCHAR C0206
ENCODING 206
SWIDTH 562 0
DWIDTH 9 0
BBX 7 14 1 0
BITMAP
38
6C
00
FE
FE
18
18
18
18
18
18
18
FE
FE
ENDCHAR
STARTCHAR C0207
ENCODING 207
SWIDTH 562 0
DWIDTH 9 0
BBX 7 14 1 0
BITMAP
6E
6E
00
FE
FE
18
18
18
18
18
18
18
FE
FE
ENDCHAR
STARTCHAR C0208
ENCODING 208
SWIDTH 562 0
DWIDTH 9 0
BBX 9 11 0 0
BITMAP
7C00
7F00
6300
6180
F980
F980
6180
6180
6300
7F00
7C00
ENDCHAR
STARTCHAR C0209
ENCODING 209
SWIDTH 562 0
DWIDTH 9 0
BBX 7 15 1 0
BITMAP
76
7E
4C
00
E6
E6
E6
F6
D6
D6
DE
CE
CE
CE
CE
ENDCHAR
STARTCHAR C0210
ENCODING 210
SWIDTH 562 0
DWIDTH 9 0
BBX 8 14 1 0
BITMAP
60
30
00
3C
FE
C6
C3
C3
83
C3
C3
C6
FE
3C
ENDCHAR
STARTCHAR C0211
ENCODING 211
SWIDTH 562 0
DWIDTH 9 0
BBX 8 14 1 0
BITMAP
0E
1C
00
3C
FE
C6
C3
C3
83
C3
C3
C6
FE
3C
ENDCHAR
STARTCHAR C0212
ENCODING 212
SWIDTH 562 0
DWIDTH 9 0
BBX 8 14 1 0
BITMAP
38
6C
00
3C
FE
C6
C3
C3
83
C3
C3
C6
FE
3C
ENDCHAR
STARTCHAR C0213
ENCODING 213
SWIDTH 562 0
DWIDTH 9 0
BBX 8 15 1 0
BITMAP
76
7E
4C
00
3C
FE
C6
C3
C3
83
C3
C3
C6
FE
3C
ENDCHAR
STARTCHAR C0214
ENCODING 214
SWIDTH 562 0
DWIDTH 9 0
BBX 8 14 1 0
BITMAP
6E
6E
00
3C
FE
C6
C3
C3
83
C3
C3
C6
FE
3C
ENDCHAR
STARTCHAR C0215
ENCODING 215
SWIDTH 562 0
DWIDTH 9 0
BBX 7 8 1 1
BITMAP
42
E6
6C
38
38
6C
E6
42
ENDCHAR
STARTCHAR C0216
ENCODING 216
SWIDTH 562 0
DWIDTH 9 0
BBX 8 13 1 -1
BITMAP
03
3E
FE
CE
CF
DB
93
F3
E3
E6
FE
FC
80
ENDCHAR
STARTCHAR C0217
ENCODING 217
SWIDTH 562 0
DWIDTH 9 0
BBX 7 14 1 0
BITMAP
60
30
00
C6
C6
C6
C6
C6
C6
C6
C6
C6
FE
7C
ENDCHAR
STARTCHAR C0218
ENCODING 218
SWIDTH 562 0
DWIDTH 9 0
BBX 7 14 1 0
BITMAP
0E
1C
00
C6
C6
C6
C6
C6
C6
C6
C6
C6
FE
7C
ENDCHAR
STARTCHAR C0219
ENCODING 219
SWIDTH 562 0
DWIDTH 9 0
BBX 7 14 1 0
BITMAP
38
6C
00
C6
C6
C6
C6
C6
C6
C6
C6
C6
FE
7C
ENDCHAR
STARTCHAR C0220
ENCODING 220
SWIDTH 562 0
DWIDTH 9 0
BBX 7 14 1 0
BITMAP
6E
6E
00
C6
C6
C6
C6
C6
C6
C6
C6
C6
FE
7C
ENDCHAR
STARTCHAR C0221
ENCODING 221
SWIDTH 562 0
DWIDTH 9 0
BBX 9 14 0 0
BITMAP
0700
0E00
0000
C180
6380
6300
3300
3600
1E00
1C00
0C00
0C00
0C00
0C00
ENDCHAR
STARTCHAR C0222
ENCODING 222
SWIDTH 562 0
DWIDTH 9 0
BBX 8 11 1 0
BITMAP
C0
C0
FC
FE
C7
C3
C7
FE
FC
C0
C0
ENDCHAR
STARTCHAR C0223
ENCODING 223
SWIDTH 562 0
DWIDTH 9 0
BBX 9 12 0 0
BITMAP
1E00
3F00
3300
3300
3600
F600
F600
3300
3180
3180
3780
3F00
ENDCHAR
STARTCHAR C0224
ENCODING 224
SWIDTH 562 0
DWIDTH 9 0
BBX 8 12 1 0
BITMAP
30
30
18
00
78
7C
06
7E
FE
C6
FF
77
ENDCHAR
STARTCHAR C0225
ENCODING 225
SWIDTH 562 0
DWIDTH 9 0
BBX 8 12 1 0
BITMAP
18
18
30
00
78
7C
06
7E
FE
C6
FF
77
ENDCHAR
STARTCHAR C0226
ENCODING 226
SWIDTH 562 0
DWIDTH 9 0
BBX 8 12 1 0
BITMAP
38
3C
6C
00
78
7C
06
7E
FE
C6
FF
77
ENDCHAR
STARTCHAR C0227
ENCODING 227
SWIDTH 562 0
DWIDTH 9 0
BBX 8 12 1 0
BITMAP
76
7E
4C
00
78
7C
06
7E
FE
C6
FF
77
ENDCHAR
STARTCHAR C0228
ENCODING 228
SWIDTH 562 0
DWIDTH 9 0
BBX 8 11 1 0
BITMAP
6C
6C
00
78
7C
06
7E
FE
C6
FF
77
ENDCHAR
STARTCHAR C0229
ENCODING 229
SWIDTH 562 0
DWIDTH 9 0
BBX 8 12 1 0
BITMAP
38
2C
38
00
78
7C
06
7E
FE
C6
FF
77
ENDCHAR
STARTCHAR C0230
ENCODING 230
SWIDTH 562 0
DWIDTH 9 0
BBX 9 8 0 0
BITMAP
7300
7F80
1D80
7F80
CC00
CC00
FF80
7380
ENDCHAR
STARTCHAR C0231
ENCODING 231
SWIDTH 562 0
DWIDTH 9 0
BBX 8 12 1 -4
BITMAP
3E
7F
E2
C0
C0
E0
7E
3E
08
1C
0C
1C
ENDCHAR
STARTCHAR C0232
ENCODING 232
SWIDTH 562 0
DWIDTH 9 0
BBX 7 12 1 0
BITMAP
30
30
18
00
3C
7E
C6
FE
C0
E0
7E
3E
ENDCHAR
STARTCHAR C0233
ENCODING 233
SWIDTH 562 0
DWIDTH 9 0
BBX 7 12 1 0
BITMAP
18
18
30
00
3C
7E
C6
FE
C0
E0
7E
3E
ENDCHAR
STARTCHAR C0234
ENCODING 234
SWIDTH 562 0
DWIDTH 9 0
BBX 7 12 1 0
BITMAP
38
3C
6C
00
3C
7E
C6
FE
C0
E0
7E
3E
ENDCHAR
STARTCHAR C0235
ENCODING 235
SWIDTH 562 0
DWIDTH 9 0
BBX 7 11 1 0
BITMAP
6C
6C
00
3C
7E
C6
FE
C0
E0
7E
3E
ENDCHAR
STARTCHAR C0236
ENCODING 236
SWIDTH 562 0
DWIDTH 9 0
BBX 8 12 1 0
BITMAP
30
30
18
00
78
78
18
18
18
18
FF
FF
ENDCHAR
STARTCHAR C0237
ENCODING 237
SWIDTH 562 0
DWIDTH 9 0
BBX 8 12 1 0
BITMAP
0C
0C
18
00
78
78
18
18
18
18
FF
FF
ENDCHAR
STARTCHAR C0238
ENCODING 238
SWIDTH 562 0
DWIDTH 9 0
BBX 8 13 1 0
BITMAP
18
38
6C
00
00
78
78
18
18
18
18
FF
FF
ENDCHAR
STARTCHAR C0239
ENCODING 239
SWIDTH 562 0
DWIDTH 9 0
BBX 8 12 1 0
BITMAP
64
6C
00
00
78
78
18
18
18
18
FF
FF
ENDCHAR
STARTCHAR C0240
ENCODING 240
SWIDTH 562 0
DWIDTH 9 0
BBX 8 12 1 0
BITMAP
20
1E
7F
7E
46
7E
FE
C7
C2
C6
FE
7C
ENDCHAR
STARTCHAR C0241
ENCODING 241
SWIDTH 562 0
DWIDTH 9 0
BBX 7 13 1 0
BITMAP
76
7E
4C
00
00
DC
FE
E6
C6
C6
C6
C6
C6
ENDCHAR
STARTCHAR C0242
ENCODING 242
SWIDTH 562 0
DWIDTH 9 0
BBX 7 12 1 0
BITMAP
30
30
18
00
3C
7E
C6
C6
C6
C6
7E
3C
ENDCHAR
STARTCHAR C0243
ENCODING 243
SWIDTH 562 0
DWIDTH 9 0
BBX 7 12 1 0
BITMAP
18
18
30
00
3C
7E
C6
C6
C6
C6
7E
3C
ENDCHAR
STARTCHAR C0244
ENCODING 244
SWIDTH 562 0
DWIDTH 9 0
BBX 7 12 1 0
BITMAP
38
3C
6C
00
3C
7E
C6
C6
C6
C6
7E
3C
ENDCHAR
STARTCHAR C0245
ENCODING 245
SWIDTH 562 0
DWIDTH 9 0
BBX 7 12 1 0
BITMAP
76
7E
4C
00
3C
7E
C6
C6
C6
C6
7E
3C
ENDCHAR
STARTCHAR C0246
ENCODING 246
SWIDTH 562 0
DWIDTH 9 0
BBX 7 11 1 0
BITMAP
6C
6C
00
3C
7E
C6
C6
C6
C6
7E
3C
ENDCHAR
STARTCHAR C0247
ENCODING 247
SWIDTH 562 0
DWIDTH 9 0
BBX 8 10 1 0
BITMAP
18
38
18
00
FF
FF
00
18
38
18
ENDCHAR
STARTCHAR C0248
ENCODING 248
SWIDTH 562 0
DWIDTH 9 0
BBX 7 10 1 -1
BITMAP
02
3C
7E
CE
DE
D6
E6
7E
7C
40
ENDCHAR
STARTCHAR C0249
ENCODING 249
SWIDTH 562 0
DWIDTH 9 0
BBX 8 12 1 0
BITMAP
30
30
18
00
C6
C6
C6
C6
C6
C6
FF
77
ENDCHAR
STARTCHAR C0250
ENCODING 250
SWIDTH 562 0
DWIDTH 9 0
BBX 8 12 1 0
BITMAP
18
18
30
00
C6
C6
C6
C6
C6
C6
FF
77
ENDCHAR
STARTCHAR C0251
ENCODING 251
SWIDTH 562 0
DWIDTH 9 0
BBX 8 12 1 0
BITMAP
38
3C
6C
00
C6
C6
C6
C6
C6
C6
FF
77
ENDCHAR
STARTCHAR C0252
ENCODING 252
SWIDTH 562 0
DWIDTH 9 0
BBX 8 11 1 0
BITMAP
6C
6C
00
C6
C6
C6
C6
C6
C6
FF
77
ENDCHAR
STARTCHAR C0253
ENCODING 253
SWIDTH 562 0
DWIDTH 9 0
BBX 9 16 0 -4
BITMAP
0600
0600
0C00
0000
6180
6300
6300
3300
3600
3E00
1E00
1C00
0C00
1C00
F800
F000
ENDCHAR
STARTCHAR C0254
ENCODING 254
SWIDTH 562 0
DWIDTH 9 0
BBX 8 16 1 -4
BITMAP
C0
C0
C0
C0
DC
FE
E7
C3
C3
E7
FE
DC
C0
C0
C0
C0
ENDCHAR
STARTCHAR C0255
ENCODING 255
SWIDTH 562 0
DWIDTH 9 0
BBX 9 15 0 -4
BITMAP
3600
3600
0000
6180
6300
6300
3300
3600
3E00
1E00
1C00
0C00
1C00
F800
F000
ENDCHAR
ENDFONT

