STARTFONT 2.1
COMMENT 
COMMENT This file has been produced by ttf2bdf written by Subhabrata Biswas
COMMENT 
COMMENT For comments, questions, bug reports, send a mail to
COMMENT                                           subhabrata.biswas@usa.net
COMMENT 
FONT -*-Cascadia Code SemiBold-Medium-R-Normal--21-160-96-96-c-12--fontspecific
SIZE 16 96 96
FONTBOUNDINGBOX 56 28 -10 -10
STARTPROPERTIES 15
FOUNDRY "Misc"
FAMILY_NAME "Cascadia Code SemiBold"
WEIGHT_NAME "Medium"
SLANT "R"
SETWIDTH_NAME "Normal"
PIXEL_SIZE 14
POINT_SIZE 160
RESOLUTION_X 96
RESOLUTION_Y 96
SPACING "C"
CHARSET_ENCODING "fontspecific"
FONT_ASCENT 23
FONT_DESCENT 5
DEFAULT_CHAR 12
COPYRIGHT "You may wish to put your copyright here"
ENDPROPERTIES
CHARS 245
STARTCHAR C0011
ENCODING 11
SWIDTH 562 0
DWIDTH 12 0
BBX 10 15 1 0
BITMAP
FFC0
FFC0
E0C0
E0C0
E0C0
E0C0
E0C0
E0C0
E0C0
E0C0
E0C0
E0C0
E0C0
FFC0
FFC0
ENDCHAR
STARTCHAR C0012
ENCODING 12
SWIDTH 562 0
DWIDTH 12 0
BBX 10 15 1 0
BITMAP
FFC0
FFC0
E0C0
E0C0
E0C0
E0C0
E0C0
E0C0
E0C0
E0C0
E0C0
E0C0
E0C0
FFC0
FFC0
ENDCHAR
STARTCHAR C0013
ENCODING 13
SWIDTH 562 0
DWIDTH 12 0
BBX 1 1 0 -1
BITMAP
00
ENDCHAR
STARTCHAR C0014
ENCODING 14
SWIDTH 562 0
DWIDTH 12 0
BBX 10 15 1 0
BITMAP
FFC0
FFC0
E0C0
E0C0
E0C0
E0C0
E0C0
E0C0
E0C0
E0C0
E0C0
E0C0
E0C0
FFC0
FFC0
ENDCHAR
STARTCHAR C0015
ENCODING 15
SWIDTH 562 0
DWIDTH 12 0
BBX 10 15 1 0
BITMAP
FFC0
FFC0
E0C0
E0C0
E0C0
E0C0
E0C0
E0C0
E0C0
E0C0
E0C0
E0C0
E0C0
FFC0
FFC0
ENDCHAR
STARTCHAR C0016
ENCODING 16
SWIDTH 562 0
DWIDTH 12 0
BBX 10 15 1 0
BITMAP
FFC0
FFC0
E0C0
E0C0
E0C0
E0C0
E0C0
E0C0
E0C0
E0C0
E0C0
E0C0
E0C0
FFC0
FFC0
ENDCHAR
STARTCHAR C0017
ENCODING 17
SWIDTH 562 0
DWIDTH 12 0
BBX 10 15 1 0
BITMAP
FFC0
FFC0
E0C0
E0C0
E0C0
E0C0
E0C0
E0C0
E0C0
E0C0
E0C0
E0C0
E0C0
FFC0
FFC0
ENDCHAR
STARTCHAR C0018
ENCODING 18
SWIDTH 562 0
E0C0
E0C0
E0C0
FFC0
FFC0
ENDCHAR
STARTCHAR C0030
ENCODING 30
SWIDTH 562 0
DWIDTH 12 0
BBX 10 15 1 0
BITMAP
FFC0
FFC0
E0C0
E0C0
E0C0
E0C0
E0C0
E0C0
E0C0
E0C0
E0C0
E0C0
E0C0
FFC0
FFC0
ENDCHAR
STARTCHAR C0031
ENCODING 31
SWIDTH 562 0
DWIDTH 12 0
BBX 10 15 1 0
BITMAP
FFC0
FFC0
E0C0
E0C0
E0C0
E0C0
E0C0
E0C0
E0C0
E0C0
E0C0
E0C0
E0C0
FFC0
FFC0
ENDCHAR
STARTCHAR C0032- 
ENCODING 32
SWIDTH 562 0
DWIDTH 12 0
BBX 1 1 0 -1
BITMAP
00
ENDCHAR
STARTCHAR C0033-!
ENCODING 33
SWIDTH 562 0
DWIDTH 12 0
BBX 4 15 4 0
BITMAP
70
60
60
60
60
60
60
60
60
60
00
00
60
F0
60
ENDCHAR
STARTCHAR C0034-"
ENCODING 34
SWIDTH 562 0
DWIDTH 12 0
BBX 7 7 3 8
BITMAP
EE
EE
CC
CC
CC
CC
CC
ENDCHAR
STARTCHAR C0035-#
ENCODING 35
SWIDTH 562 0
DWIDTH 12 0
BBX 10 15 1 0
BITMAP
3980
3980
3180
3180
FFC0
FFC0
3380
3300
3300
FFC0
FFC0
3300
7300
7300
6300
ENDCHAR
STARTCHAR C0036-$
ENCODING 36
SWIDTH 562 0
DWIDTH 12 0
BBX 10 21 1 -3
BITMAP
0C00
0C00
0C00
1F00
7FC0
7D80
6C00
6C00
7C00
7C00
1F00
0F80
0FC0
0DC0
0DC0
CDC0
FF80
7F00
0C00
0C00
0C00
ENDCHAR
STARTCHAR C0037-%
ENCODING 37
SWIDTH 562 0
DWIDTH 12 0
BBX 12 15 0 0
BITMAP
3C00
7C00
6600
E600
6660
7DE0
3B80
0700
1DE0
3BF0
7330
0330
0330
03F0
01E0
ENDCHAR
STARTCHAR C0038-&
ENCODING 38
SWIDTH 562 0
DWIDTH 12 0
BBX 13 15 0 0
BITMAP
0F80
1FC0
39C0
38C0
3800
3800
1C00
1E60
7E60
7760
63E0
E1C0
71E0
7FE0
3E70
ENDCHAR
STARTCHAR C0039-'
ENCODING 39
SWIDTH 562 0
DWIDTH 12 0
BBX 3 7 5 8
BITMAP
E0
E0
C0
C0
C0
C0
C0
ENDCHAR
STARTCHAR C0040-(
ENCODING 40
SWIDTH 562 0
DWIDTH 12 0
BBX 7 19 3 -2
BITMAP
06
1E
3C
70
60
E0
E0
C0
C0
C0
C0
C0
C0
E0
E0
60
70
3E
1E
ENDCHAR
STARTCHAR C0041-)
ENCODING 41
SWIDTH 562 0
DWIDTH 12 0
BBX 8 19 2 -2
BITMAP
C0
F0
78
1C
0E
0E
06
07
07
07
07
07
06
06
0E
0E
1C
F8
F0
ENDCHAR
STARTCHAR C0042-*
ENCODING 42
SWIDTH 562 0
DWIDTH 12 0
BBX 10 10 1 2
BITMAP
0C00
0C00
4C40
FFC0
7F80
1E00
1F00
3B80
7380
0100
ENDCHAR
STARTCHAR C0043-+
ENCODING 43
SWIDTH 562 0
DWIDTH 12 0
BBX 10 10 1 2
BITMAP
0C00
0C00
0C00
0C00
FFC0
FFC0
0C00
0C00
0C00
0C00
ENDCHAR
STARTCHAR C0044-,
ENCODING 44
SWIDTH 562 0
DWIDTH 12 0
BBX 4 7 4 -4
BITMAP
70
60
60
E0
E0
E0
C0
ENDCHAR
STARTCHAR C0045--
ENCODING 45
SWIDTH 562 0
DWIDTH 12 0
BBX 10 2 1 6
BITMAP
FFC0
FFC0
ENDCHAR
STARTCHAR C0046-.
ENCODING 46
SWIDTH 562 0
DWIDTH 12 0
BBX 4 3 4 0
BITMAP
60
F0
60
ENDCHAR
STARTCHAR C0047-/
ENCODING 47
SWIDTH 562 0
DWIDTH 12 0
BBX 11 18 1 -1
BITMAP
00E0
00C0
01C0
0180
0380
0300
0700
0600
0E00
0E00
0C00
1C00
1800
3800
3000
7000
6000
E000
ENDCHAR
STARTCHAR C0048-0
ENCODING 48
SWIDTH 562 0
DWIDTH 12 0
BBX 10 15 1 0
BITMAP
1E00
3F80
7380
61C0
E1C0
E0C0
ECC0
EEC0
ECC0
E0C0
E1C0
61C0
7380
3F80
1E00
ENDCHAR
STARTCHAR C0049-1
ENCODING 49
SWIDTH 562 0
DWIDTH 12 0
BBX 9 15 2 0
BITMAP
3C00
FC00
DC00
1C00
1C00
1C00
1C00
1C00
1C00
1C00
1C00
1C00
1C00
FF80
FF80
ENDCHAR
STARTCHAR C0050-2
ENCODING 50
SWIDTH 562 0
DWIDTH 12 0
BBX 10 15 1 0
BITMAP
3E00
7F80
E380
4180
01C0
0180
0380
0380
0700
0E00
1C00
7800
F000
FFC0
FFC0
ENDCHAR
STARTCHAR C0051-3
ENCODING 51
SWIDTH 562 0
DWIDTH 12 0
BBX 10 15 1 0
BITMAP
3F00
7F80
6180
4180
0180
0700
1E00
1F00
0780
01C0
01C0
01C0
0380
7F80
FE00
ENDCHAR
STARTCHAR C0052-4
ENCODING 52
SWIDTH 562 0
DWIDTH 12 0
BBX 11 15 1 0
BITMAP
0180
7180
7180
7180
6180
6180
6180
E180
E180
E180
FFE0
FFE0
0180
0180
0180
ENDCHAR
STARTCHAR C0053-5
ENCODING 53
SWIDTH 562 0
DWIDTH 12 0
BBX 10 15 1 0
BITMAP
7F80
7F80
7000
7000
7000
7F00
7F80
71C0
01C0
00C0
E0C0
E1C0
71C0
7F80
1F00
ENDCHAR
STARTCHAR C0054-6
ENCODING 54
SWIDTH 562 0
DWIDTH 12 0
BBX 10 15 1 0
BITMAP
0380
0F80
3C00
3800
7000
6200
EF80
FBC0
E1C0
E0C0
E0C0
E0C0
71C0
7F80
1F00
ENDCHAR
STARTCHAR C0055-7
ENCODING 55
SWIDTH 562 0
DWIDTH 12 0
BBX 11 15 1 0
BITMAP
FFE0
FFC0
E1C0
E1C0
E180
0180
0380
0380
0300
0700
0700
0600
0E00
0E00
0C00
ENDCHAR
STARTCHAR C0056-8
ENCODING 56
SWIDTH 562 0
DWIDTH 12 0
BBX 10 15 1 0
BITMAP
1F00
7F80
71C0
61C0
61C0
6180
3F00
1E00
7380
E1C0
E0C0
E0C0
E1C0
7F80
3F00
ENDCHAR
STARTCHAR C0057-9
ENCODING 57
SWIDTH 562 0
DWIDTH 12 0
BBX 10 15 1 0
BITMAP
1F00
7F80
71C0
E1C0
E0C0
E0C0
E1C0
72C0
7FC0
19C0
0180
0380
0F00
7E00
7800
ENDCHAR
STARTCHAR C0058-:
ENCODING 58
SWIDTH 562 0
DWIDTH 12 0
BBX 4 11 4 0
BITMAP
60
F0
60
00
00
00
00
00
60
F0
60
ENDCHAR
STARTCHAR C0059-;
ENCODING 59
SWIDTH 562 0
DWIDTH 12 0
BBX 4 15 4 -4
BITMAP
60
F0
60
00
00
00
00
00
70
60
60
E0
E0
E0
C0
ENDCHAR
STARTCHAR C0060-<
ENCODING 60
SWIDTH 562 0
DWIDTH 12 0
BBX 10 10 1 3
BITMAP
0000
01C0
07C0
3FC0
FC00
C000
FC00
3FC0
07C0
00C0
ENDCHAR
STARTCHAR C0061-=
ENCODING 61
SWIDTH 562 0
DWIDTH 12 0
BBX 10 7 1 4
BITMAP
FFC0
FFC0
0000
0000
0000
FFC0
FFC0
ENDCHAR
STARTCHAR C0062->
ENCODING 62
SWIDTH 562 0
DWIDTH 12 0
BBX 11 10 1 3
BITMAP
0000
E000
FC00
FF00
0FE0
00E0
0FC0
FF00
F800
E000
ENDCHAR
STARTCHAR C0063-?
ENCODING 63
SWIDTH 562 0
DWIDTH 12 0
BBX 9 15 1 0
BITMAP
3F00
7F80
E380
4180
0180
0380
0700
0E00
0C00
0C00
0000
0000
1C00
1C00
1C00
ENDCHAR
STARTCHAR C0064-@
ENCODING 64
SWIDTH 562 0
DWIDTH 12 0
BBX 10 18 1 -3
BITMAP
1F00
3F80
71C0
60C0
EEC0
CFC0
CCC0
D8C0
D8C0
D8C0
D8C0
CDC0
CEC0
E6C0
6000
7000
3F00
0F00
ENDCHAR
STARTCHAR C0065-A
ENCODING 65
SWIDTH 562 0
DWIDTH 12 0
BBX 12 15 0 0
BITMAP
0F00
0F00
0F00
0F80
1D80
1980
19C0
39C0
38C0
30C0
3FE0
7FE0
7060
6070
E070
ENDCHAR
STARTCHAR C0066-B
ENCODING 66
SWIDTH 562 0
DWIDTH 12 0
BBX 10 15 2 0
BITMAP
FE00
FF00
C380
C380
C380
C300
FE00
FF00
C380
C1C0
C1C0
C1C0
C380
FF80
FF00
ENDCHAR
STARTCHAR C0067-C
ENCODING 67
SWIDTH 562 0
DWIDTH 12 0
BBX 11 15 1 0
BITMAP
0F80
3FC0
70C0
6000
E000
E000
C000
C000
C000
E000
E000
E000
7800
3FC0
0FC0
ENDCHAR
STARTCHAR C0068-D
ENCODING 68
SWIDTH 562 0
DWIDTH 12 0
BBX 11 15 1 0
BITMAP
FE00
FF80
E380
E1C0
E0C0
E0E0
E0E0
E0E0
E0E0
E0E0
E0C0
E1C0
E3C0
FF80
FE00
ENDCHAR
STARTCHAR C0069-E
ENCODING 69
SWIDTH 562 0
DWIDTH 12 0
BBX 9 15 2 0
BITMAP
FF80
FF80
C000
C000
C000
C000
C000
FF00
FF00
C000
C000
C000
C000
FF80
FF80
ENDCHAR
STARTCHAR C0070-F
ENCODING 70
SWIDTH 562 0
DWIDTH 12 0
BBX 10 15 2 0
BITMAP
FFC0
FFC0
C000
C000
C000
C000
C000
FF00
FF00
C000
C000
C000
C000
C000
C000
ENDCHAR
STARTCHAR C0071-G
ENCODING 71
SWIDTH 562 0
DWIDTH 12 0
BBX 11 15 1 0
BITMAP
1F80
3FC0
70C0
E000
E000
C000
C000
C000
C7C0
C7C0
E0C0
E0C0
70C0
3FC0
1FC0
ENDCHAR
STARTCHAR C0072-H
ENCODING 72
SWIDTH 562 0
DWIDTH 12 0
BBX 10 15 1 0
BITMAP
E1C0
E1C0
E1C0
E1C0
E1C0
E1C0
E1C0
FFC0
FFC0
E1C0
E1C0
E1C0
E1C0
E1C0
E1C0
ENDCHAR
STARTCHAR C0073-I
ENCODING 73
SWIDTH 562 0
DWIDTH 12 0
BBX 9 15 2 0
BITMAP
FF80
FF80
1800
1800
1800
1800
1800
1800
1800
1800
1800
1800
1800
FF80
FF80
ENDCHAR
STARTCHAR C0074-J
ENCODING 74
SWIDTH 562 0
DWIDTH 12 0
BBX 10 15 1 0
BITMAP
0FC0
0FC0
00C0
00C0
00C0
00C0
00C0
00C0
00C0
00C0
C1C0
E1C0
E180
7F80
3E00
ENDCHAR
STARTCHAR C0075-K
ENCODING 75
SWIDTH 562 0
DWIDTH 12 0
BBX 11 15 1 0
BITMAP
E0C0
E0C0
E0C0
E1C0
E180
E380
E300
EF00
FF00
FB00
E380
E380
E1C0
E1C0
E0E0
ENDCHAR
STARTCHAR C0076-L
ENCODING 76
SWIDTH 562 0
DWIDTH 12 0
BBX 9 15 2 0
BITMAP
C000
C000
C000
C000
C000
C000
C000
C000
C000
C000
C000
C000
C000
FF80
FF80
ENDCHAR
STARTCHAR C0077-M
ENCODING 77
SWIDTH 562 0
DWIDTH 12 0
BBX 10 15 1 0
BITMAP
F3C0
F3C0
F3C0
FAC0
FAC0
FEC0
EEC0
ECC0
ECC0
E0C0
E0C0
E0C0
E0C0
E0C0
E0C0
ENDCHAR
STARTCHAR C0078-N
ENCODING 78
SWIDTH 562 0
DWIDTH 12 0
BBX 10 15 1 0
BITMAP
F1C0
F1C0
F9C0
F9C0
F9C0
E9C0
EDC0
EDC0
E5C0
E7C0
E7C0
E7C0
E3C0
E3C0
E3C0
ENDCHAR
STARTCHAR C0079-O
ENCODING 79
SWIDTH 562 0
DWIDTH 12 0
BBX 11 15 1 0
BITMAP
1F00
7F80
71C0
E1C0
E0C0
C0E0
C0E0
C0E0
C0E0
C0E0
E0C0
E1C0
71C0
7F80
1F00
ENDCHAR
STARTCHAR C0080-P
ENCODING 80
SWIDTH 562 0
DWIDTH 12 0
BBX 10 15 2 0
BITMAP
FE00
FF00
C380
C180
C1C0
C1C0
C1C0
C180
C380
FF00
FE00
C000
C000
C000
C000
ENDCHAR
STARTCHAR C0081-Q
ENCODING 81
SWIDTH 562 0
DWIDTH 12 0
BBX 11 20 1 -5
BITMAP
1F00
7F80
71C0
E1C0
E0C0
C0E0
C0E0
C0E0
C0E0
C0E0
E0C0
E1C0
71C0
7F80
1F00
0C00
0C00
0E00
07C0
03C0
ENDCHAR
STARTCHAR C0082-R
ENCODING 82
SWIDTH 562 0
DWIDTH 12 0
BBX 11 15 1 0
BITMAP
FF00
FF80
E1C0
E0C0
E0C0
E0C0
E1C0
FF80
FF00
E300
E380
E380
E1C0
E1C0
E0E0
ENDCHAR
STARTCHAR C0083-S
ENCODING 83
SWIDTH 562 0
DWIDTH 12 0
BBX 10 15 1 0
BITMAP
1F00
7FC0
7180
6000
6000
7000
7C00
1F00
0F80
03C0
01C0
01C0
C1C0
FF80
7F00
ENDCHAR
STARTCHAR C0084-T
ENCODING 84
SWIDTH 562 0
DWIDTH 12 0
BBX 11 15 1 0
BITMAP
FFE0
FFE0
0C00
0C00
0C00
0C00
0C00
0C00
0C00
0C00
0C00
0C00
0C00
0C00
0C00
ENDCHAR
STARTCHAR C0085-U
ENCODING 85
SWIDTH 562 0
DWIDTH 12 0
BBX 10 15 1 0
BITMAP
E1C0
E1C0
E1C0
E1C0
E1C0
E1C0
E1C0
E1C0
E1C0
E1C0
E1C0
E1C0
71C0
7F80
1F00
ENDCHAR
STARTCHAR C0086-V
ENCODING 86
SWIDTH 562 0
DWIDTH 12 0
BBX 12 15 0 0
BITMAP
E070
6070
7060
7060
30E0
30E0
38C0
38C0
19C0
1980
1980
1D80
0F80
0F00
0F00
ENDCHAR
STARTCHAR C0087-W
ENCODING 87
SWIDTH 562 0
DWIDTH 12 0
BBX 12 15 0 0
BITMAP
E030
E030
E030
E070
6670
6670
6770
6760
6F60
6D60
6D60
6D60
7960
39E0
39E0
ENDCHAR
STARTCHAR C0088-X
ENCODING 88
SWIDTH 562 0
DWIDTH 12 0
BBX 12 15 0 0
BITMAP
7070
70E0
38C0
19C0
1D80
0F80
0F00
0600
0F00
0F80
1D80
19C0
38C0
70E0
7070
ENDCHAR
STARTCHAR C0089-Y
ENCODING 89
SWIDTH 562 0
DWIDTH 12 0
BBX 12 15 0 0
BITMAP
E070
7060
70E0
30C0
39C0
19C0
1D80
0F80
0F00
0700
0600
0600
0600
0600
0600
ENDCHAR
STARTCHAR C0090-Z
ENCODING 90
SWIDTH 562 0
DWIDTH 12 0
BBX 10 15 1 0
BITMAP
FFC0
FFC0
01C0
0380
0300
0700
0E00
0C00
1C00
1800
3800
7000
6000
FFC0
FFC0
ENDCHAR
STARTCHAR C0091-[
ENCODING 91
SWIDTH 562 0
DWIDTH 12 0
BBX 6 19 4 -2
BITMAP
FC
FC
C0
C0
C0
C0
C0
C0
C0
C0
C0
C0
C0
C0
C0
C0
C0
FC
FC
ENDCHAR
STARTCHAR C0092-\
ENCODING 92
SWIDTH 562 0
DWIDTH 12 0
BBX 10 18 1 -1
BITMAP
C000
E000
6000
7000
3000
3800
3800
1800
1C00
0C00
0E00
0600
0700
0300
0380
0380
0180
01C0
ENDCHAR
STARTCHAR C0093-]
ENCODING 93
SWIDTH 562 0
DWIDTH 12 0
BBX 7 19 2 -2
BITMAP
FE
FE
0E
0E
0E
0E
0E
0E
0E
0E
0E
0E
0E
0E
0E
0E
0E
FE
FE
ENDCHAR
STARTCHAR C0094-^
ENCODING 94
SWIDTH 562 0
DWIDTH 12 0
BBX 8 6 2 9
BITMAP
3C
3C
3E
66
67
E3
ENDCHAR
STARTCHAR C0095-_
ENCODING 95
SWIDTH 562 0
DWIDTH 12 0
BBX 10 2 1 -2
BITMAP
FFC0
FFC0
ENDCHAR
STARTCHAR C0096-`
ENCODING 96
SWIDTH 562 0
DWIDTH 12 0
BBX 6 6 3 9
BITMAP
E0
70
70
38
38
18
ENDCHAR
STARTCHAR C0097-a
ENCODING 97
SWIDTH 562 0
DWIDTH 12 0
BBX 11 11 1 0
BITMAP
7E00
7F00
0380
0180
3F80
7F80
E180
C180
E380
FFE0
7DE0
ENDCHAR
STARTCHAR C0098-b
ENCODING 98
SWIDTH 562 0
DWIDTH 12 0
BBX 9 15 2 0
BITMAP
C000
C000
C000
C000
DE00
FF00
E380
C180
C180
C180
C180
C380
C700
FE00
FF80
1800
1800
1800
1800
1800
1800
1800
1800
1800
1800
1800
FF80
FF80
ENDCHAR
STARTCHAR C0206
ENCODING 206
SWIDTH 562 0
DWIDTH 12 0
BBX 9 20 2 0
BITMAP
1C00
3E00
7600
0000
0000
FF80
FF80
1800
1800
1800
1800
1800
1800
1800
1800
1800
1800
1800
FF80
FF80
ENDCHAR
STARTCHAR C0207
ENCODING 207
SWIDTH 562 0
DWIDTH 12 0
BBX 9 20 2 0
BITMAP
6700
E700
6700
0000
0000
FF80
FF80
1800
1800
1800
1800
1800
1800
1800
1800
1800
1800
1800
FF80
FF80
ENDCHAR
STARTCHAR C0208
ENCODING 208
SWIDTH 562 0
DWIDTH 12 0
BBX 12 15 0 0
BITMAP
7F00
7FC0
71C0
70E0
7060
7070
7070
FE70
FE70
7070
7060
70E0
71E0
7FC0
7F00
ENDCHAR
STARTCHAR C0209
ENCODING 209
SWIDTH 562 0
DWIDTH 12 0
BBX 10 20 1 0
BITMAP
3980
7F80
6380
0000
0000
F1C0
F1C0
F9C0
F9C0
F9C0
E9C0
EDC0
EDC0
E5C0
E7C0
E7C0
E7C0
E3C0
E3C0
E3C0
ENDCHAR
STARTCHAR C0210
ENCODING 210
SWIDTH 562 0
DWIDTH 12 0
BBX 11 19 1 0
BITMAP
7000
3800
1C00
0000
1F00
7F80
71C0
E1C0
E0C0
C0E0
C0E0
C0E0
C0E0
C0E0
E0C0
E1C0
71C0
7F80
1F00
ENDCHAR
STARTCHAR C0211
ENCODING 211
SWIDTH 562 0
DWIDTH 12 0
BBX 11 19 1 0
BITMAP
0380
0700
0E00
0000
1F00
7F80
71C0
E1C0
E0C0
C0E0
C0E0
C0E0
C0E0
C0E0
E0C0
E1C0
71C0
7F80
1F00
ENDCHAR
STARTCHAR C0212
ENCODING 212
SWIDTH 562 0
DWIDTH 12 0
BBX 11 19 1 0
BITMAP
0E00
1F00
3B00
0000
1F00
7F80
71C0
E1C0
E0C0
C0E0
C0E0
C0E0
C0E0
C0E0
E0C0
E1C0
71C0
7F80
1F00
ENDCHAR
STARTCHAR C0213
ENCODING 213
SWIDTH 562 0
DWIDTH 12 0
BBX 11 19 1 0
BITMAP
3980
7F80
6380
0000
1F00
7F80
71C0
E1C0
E0C0
C0E0
C0E0
C0E0
C0E0
C0E0
E0C0
E1C0
71C0
7F80
1F00
ENDCHAR
STARTCHAR C0214
ENCODING 214
SWIDTH 562 0
DWIDTH 12 0
BBX 11 19 1 0
BITMAP
3380
7380
3380
0000
1F00
7F80
71C0
E1C0
E0C0
C0E0
C0E0
C0E0
C0E0
C0E0
E0C0
E1C0
71C0
7F80
1F00
ENDCHAR
STARTCHAR C0215
ENCODING 215
SWIDTH 562 0
DWIDTH 12 0
BBX 10 10 1 2
BITMAP
4080
E1C0
7380
3F00
1E00
1E00
3F00
7380
E1C0
4080
ENDCHAR
STARTCHAR C0216
ENCODING 216
SWIDTH 562 0
DWIDTH 12 0
BBX 11 17 1 -1
BITMAP
00C0
1FC0
7F80
71C0
E3C0
E3C0
C6E0
C6E0
CCE0
DCE0
D8E0
F0C0
F1C0
71C0
7F80
DF00
C000
ENDCHAR
STARTCHAR C0217
ENCODING 217
SWIDTH 562 0
DWIDTH 12 0
BBX 10 20 1 0
BITMAP
7000
3800
1C00
0000
0000
E1C0
E1C0
E1C0
E1C0
E1C0
E1C0
E1C0
E1C0
E1C0
E1C0
E1C0
E1C0
71C0
7F80
1F00
ENDCHAR
STARTCHAR C0218
ENCODING 218
SWIDTH 562 0
DWIDTH 12 0
BBX 10 20 1 0
BITMAP
0380
0700
0E00
0000
0000
E1C0
E1C0
E1C0
E1C0
E1C0
E1C0
E1C0
E1C0
E1C0
E1C0
E1C0
E1C0
71C0
7F80
1F00
ENDCHAR
STARTCHAR C0219
ENCODING 219
SWIDTH 562 0
DWIDTH 12 0
BBX 10 20 1 0
BITMAP
0E00
1F00
3B00
0000
0000
E1C0
E1C0
E1C0
E1C0
E1C0
E1C0
E1C0
E1C0
E1C0
E1C0
E1C0
E1C0
71C0
7F80
1F00
ENDCHAR
STARTCHAR C0220
ENCODING 220
SWIDTH 562 0
DWIDTH 12 0
BBX 10 20 1 0
BITMAP
3380
7380
3380
0000
0000
E1C0
E1C0
E1C0
E1C0
E1C0
E1C0
E1C0
E1C0
E1C0
E1C0
E1C0
E1C0
71C0
7F80
1F00
ENDCHAR
STARTCHAR C0221
ENCODING 221
SWIDTH 562 0
DWIDTH 12 0
BBX 12 20 0 0
BITMAP
01C0
0380
0700
0000
0000
E070
7060
70E0
30C0
39C0
19C0
1D80
0F80
0F00
0700
0600
0600
0600
0600
0600
ENDCHAR
STARTCHAR C0222
ENCODING 222
SWIDTH 562 0
DWIDTH 12 0
BBX 10 15 2 0
BITMAP
C000
C000
FE00
FF00
C380
C180
C1C0
C1C0
C1C0
C180
C380
FF00
FE00
C000
C000
ENDCHAR
STARTCHAR C0223
ENCODING 223
SWIDTH 562 0
DWIDTH 12 0
BBX 11 15 1 0
BITMAP
1F00
3F80
71C0
71C0
7180
7380
7300
F300
F380
71C0
70E0
70E0
70E0
77E0
77C0
ENDCHAR
STARTCHAR C0224
ENCODING 224
SWIDTH 562 0
DWIDTH 12 0
BBX 11 17 1 0
BITMAP
3000
3800
1800
1C00
0000
0000
7E00
7F00
0380
0180
3F80
7F80
E180
C180
E380
FFE0
7DE0
ENDCHAR
STARTCHAR C0225
ENCODING 225
SWIDTH 562 0
DWIDTH 12 0
BBX 11 17 1 0
BITMAP
0600
0E00
0C00
1C00
0000
0000
7E00
7F00
0380
0180
3F80
7F80
E180
C180
E380
FFE0
7DE0
ENDCHAR
STARTCHAR C0226
ENCODING 226
SWIDTH 562 0
DWIDTH 12 0
BBX 11 17 1 0
BITMAP
0E00
1E00
3B00
3380
0000
0000
7E00
7F00
0380
0180
3F80
7F80
E180
C180
E380
FFE0
7DE0
ENDCHAR
STARTCHAR C0227
ENCODING 227
SWIDTH 562 0
DWIDTH 12 0
BBX 11 17 1 0
BITMAP
0180
3F80
7F80
7000
0000
0000
7E00
7F00
0380
0180
3F80
7F80
E180
C180
E380
FFE0
7DE0
ENDCHAR
STARTCHAR C0228
ENCODING 228
SWIDTH 562 0
DWIDTH 12 0
BBX 11 16 1 0
BITMAP
3380
7380
3380
0000
0000
7E00
7F00
0380
0180
3F80
7F80
E180
C180
E380
FFE0
7DE0
ENDCHAR
STARTCHAR C0229
ENCODING 229
SWIDTH 562 0
DWIDTH 12 0
BBX 11 17 1 0
BITMAP
1E00
1300
3300
1300
1E00
0000
7E00
7F00
0380
0180
3F80
7F80
E180
C180
E380
FFE0
7DE0
ENDCHAR
STARTCHAR C0230
ENCODING 230
SWIDTH 562 0
DWIDTH 12 0
BBX 12 11 0 0
BITMAP
79E0
7DE0
0F70
0630
1E30
7FF0
E7F0
E700
E780
FDF0
78F0
ENDCHAR
STARTCHAR C0231
ENCODING 231
SWIDTH 562 0
DWIDTH 12 0
BBX 10 16 1 -5
BITMAP
1F80
3FC0
71C0
6080
E000
E000
E000
6000
7000
3FC0
1FC0
0600
0F00
0300
0F00
0E00
ENDCHAR
STARTCHAR C0232
ENCODING 232
SWIDTH 562 0
DWIDTH 12 0
BBX 10 17 1 0
BITMAP
1800
1C00
0C00
0E00
0000
0000
1E00
7F80
7180
E1C0
E1C0
FFC0
FFC0
E000
7000
3F80
1F80
ENDCHAR
STARTCHAR C0233
ENCODING 233
SWIDTH 562 0
DWIDTH 12 0
BBX 10 17 1 0
BITMAP
0300
0700
0600
0E00
0000
0000
1E00
7F80
7180
E1C0
E1C0
FFC0
FFC0
E000
7000
3F80
1F80
ENDCHAR
STARTCHAR C0234
ENCODING 234
SWIDTH 562 0
DWIDTH 12 0
BBX 10 17 1 0
BITMAP
0E00
1E00
3B00
3380
0000
0000
1E00
7F80
7180
E1C0
E1C0
FFC0
FFC0
E000
7000
3F80
1F80
ENDCHAR
STARTCHAR C0235
ENCODING 235
SWIDTH 562 0
DWIDTH 12 0
BBX 10 16 1 0
BITMAP
3380
7380
3380
0000
0000
1E00
7F80
7180
E1C0
E1C0
FFC0
FFC0
E000
7000
3F80
1F80
ENDCHAR
STARTCHAR C0236
ENCODING 236
SWIDTH 562 0
DWIDTH 12 0
BBX 9 17 2 0
BITMAP
3000
3800
1800
1C00
0000
0000
FC00
FC00
0C00
0C00
0C00
0C00
0C00
0C00
0C00
FF80
FF80
ENDCHAR
STARTCHAR C0237
ENCODING 237
SWIDTH 562 0
DWIDTH 12 0
BBX 9 17 2 0
BITMAP
0600
0E00
0C00
1C00
0000
0000
FC00
FC00
0C00
0C00
0C00
0C00
0C00
0C00
0C00
FF80
FF80
ENDCHAR
STARTCHAR C0238
ENCODING 238
SWIDTH 562 0
DWIDTH 12 0
BBX 9 18 2 0
BITMAP
0E00
1E00
1F00
3300
0000
0000
0000
FC00
FC00
0C00
0C00
0C00
0C00
0C00
0C00
0C00
FF80
FF80
ENDCHAR
STARTCHAR C0239
ENCODING 239
SWIDTH 562 0
DWIDTH 12 0
BBX 9 16 2 0
BITMAP
3100
7380
3380
0000
0000
FC00
FC00
0C00
0C00
0C00
0C00
0C00
0C00
0C00
FF80
FF80
ENDCHAR
STARTCHAR C0240
ENCODING 240
SWIDTH 562 0
DWIDTH 12 0
BBX 10 16 1 0
BITMAP
1000
1DC0
0FC0
7F80
3180
01C0
1DC0
7FC0
73C0
E1C0
E0C0
E0C0
E1C0
7180
7F80
3E00
ENDCHAR
STARTCHAR C0241
ENCODING 241
SWIDTH 562 0
DWIDTH 12 0
BBX 9 17 2 0
BITMAP
0300
7F00
FF00
E000
0000
0000
DE00
DF00
E380
C380
C380
C380
C380
C380
C380
C380
C380
ENDCHAR
STARTCHAR C0242
ENCODING 242
SWIDTH 562 0
DWIDTH 12 0
BBX 10 17 1 0
BITMAP
1800
1C00
0C00
0E00
0000
0000
1F00
3F80
7380
61C0
E1C0
E1C0
E1C0
61C0
7380
3F80
1F00
ENDCHAR
STARTCHAR C0243
ENCODING 243
SWIDTH 562 0
DWIDTH 12 0
BBX 10 17 1 0
BITMAP
0300
0700
0600
0E00
0000
0000
1F00
3F80
7380
61C0
E1C0
E1C0
E1C0
61C0
7380
3F80
1F00
ENDCHAR
STARTCHAR C0244
ENCODING 244
SWIDTH 562 0
DWIDTH 12 0
BBX 10 17 1 0
BITMAP
0E00
1E00
3B00
3380
0000
0000
1F00
3F80
7380
61C0
E1C0
E1C0
E1C0
61C0
7380
3F80
1F00
ENDCHAR
STARTCHAR C0245
ENCODING 245
SWIDTH 562 0
DWIDTH 12 0
BBX 10 17 1 0
BITMAP
0180
3F80
7F80
7000
0000
0000
1F00
3F80
7380
61C0
E1C0
E1C0
E1C0
61C0
7380
3F80
1F00
ENDCHAR
STARTCHAR C0246
ENCODING 246
SWIDTH 562 0
DWIDTH 12 0
BBX 10 16 1 0
BITMAP
3380
7380
3380
0000
0000
1F00
3F80
7380
61C0
E1C0
E1C0
E1C0
61C0
7380
3F80
1F00
ENDCHAR
STARTCHAR C0247
ENCODING 247
SWIDTH 562 0
DWIDTH 12 0
BBX 10 12 1 1
BITMAP
0C00
1E00
0C00
0000
0000
FFC0
FFC0
0000
0000
0C00
1E00
0C00
ENDCHAR
STARTCHAR C0248
ENCODING 248
SWIDTH 562 0
DWIDTH 12 0
BBX 10 13 1 -1
BITMAP
0080
1F80
3F80
7380
67C0
E7C0
EDC0
E9C0
79C0
7380
3F80
7F00
4000
ENDCHAR
STARTCHAR C0249
ENCODING 249
SWIDTH 562 0
DWIDTH 12 0
BBX 11 17 1 0
BITMAP
3000
3800
1800
1C00
0000
0000
E180
E180
E180
E180
E180
E180
E180
E180
6380
7DE0
3DE0
ENDCHAR
STARTCHAR C0250
ENCODING 250
SWIDTH 562 0
DWIDTH 12 0
BBX 11 17 1 0
BITMAP
0600
0E00
0C00
1C00
0000
0000
E180
E180
E180
E180
E180
E180
E180
E180
6380
7DE0
3DE0
ENDCHAR
STARTCHAR C0251
ENCODING 251
SWIDTH 562 0
DWIDTH 12 0
BBX 11 17 1 0
BITMAP
0E00
1E00
3B00
3380
0000
0000
E180
E180
E180
E180
E180
E180
E180
E180
6380
7DE0
3DE0
ENDCHAR
STARTCHAR C0252
ENCODING 252
SWIDTH 562 0
DWIDTH 12 0
BBX 11 16 1 0
BITMAP
3380
7380
3380
0000
0000
E180
E180
E180
E180
E180
E180
E180
E180
6380
7DE0
3DE0
ENDCHAR
STARTCHAR C0253
ENCODING 253
SWIDTH 562 0
DWIDTH 12 0
BBX 12 22 0 -5
BITMAP
0180
0380
0300
0700
0000
0000
6060
70E0
70E0
30C0
38C0
39C0
19C0
1D80
1D80
0F80
0F00
0300
0600
0E00
7C00
7000
ENDCHAR
STARTCHAR C0254
ENCODING 254
SWIDTH 562 0
DWIDTH 12 0
BBX 9 20 2 -5
BITMAP
C000
C000
C000
C000
DE00
DF00
E380
C180
C180
C180
C180
C180
E380
DF00
DE00
C000
C000
C000
C000
C000
ENDCHAR
STARTCHAR C0255
ENCODING 255
SWIDTH 562 0
DWIDTH 12 0
BBX 12 21 0 -5
BITMAP
19C0
39C0
19C0
0000
0000
6060
70E0
70E0
30C0
38C0
39C0
19C0
1D80
1D80
0F80
0F00
0300
0600
0E00
7C00
7000
ENDCHAR
ENDFONT

